<?xml version="1.0" encoding="UTF-8"?>
<svg width="72px" height="74px" viewBox="0 0 72 74" version="1.1" xmlns="http://www.w3.org/2000/svg" xmlns:xlink="http://www.w3.org/1999/xlink">
    <!-- Generator: Sketch 50.2 (55047) - http://www.bohemiancoding.com/sketch -->
    <title>Group 3</title>
    <desc>Created with Sketch.</desc>
    <defs></defs>
    <g id="Page-3" stroke="none" stroke-width="1" fill="none" fill-rule="evenodd">
        <g id="Desktop-HD" transform="translate(-152.000000, -725.000000)">
            <g id="features" transform="translate(65.000000, 706.000000)">
                <g id="Group" transform="translate(87.000000, 16.000000)">
                    <g id="Group-3" transform="translate(0.000000, 3.000000)">
                        <path d="M69.640625,59.765625 L69.640625,59.140625 C69.640625,55.8593586 68.4817824,53.0468867 66.1640625,50.703125 C63.8463426,48.3593633 61.0468914,47.1875 57.765625,47.1875 L19.40625,47.1875 C16.0729,47.1875 13.2474074,48.3593633 10.9296875,50.703125 C8.61196758,53.0468867 7.453125,55.8593586 7.453125,59.140625 L7.453125,59.765625 C7.453125,63.0468914 8.61196758,65.8463426 10.9296875,68.1640625 C13.2474074,70.4817824 16.0729,71.640625 19.40625,71.640625 L57.765625,71.640625 C61.0468914,71.640625 63.8463426,70.4817824 66.1640625,68.1640625 C68.4817824,65.8463426 69.640625,63.0468914 69.640625,59.765625 Z" id="Path" fill="#CED4E4"></path>
                        <circle id="Oval-3" fill="#FFFFFF" cx="53" cy="58" r="7"></circle>
                        <path d="M54.765625,0.90625 C57.0052195,0.90625 59.1145734,1.3359332 61.09375,2.1953125 C63.0729266,3.0546918 64.8046801,4.22655508 66.2890625,5.7109375 C67.7734449,7.19531992 68.9453082,8.92707344 69.8046875,10.90625 C70.6640668,12.8854266 71.09375,14.9947805 71.09375,17.234375 L71.09375,17.859375 C71.09375,20.0989695 70.6640668,22.2213441 69.8046875,24.2265625 C68.9453082,26.2317809 67.7734449,27.9635344 66.2890625,29.421875 C64.8046801,30.8802156 63.0729266,32.0390582 61.09375,32.8984375 C59.1145734,33.7578168 57.0052195,34.1875 54.765625,34.1875 L16.40625,34.1875 C14.1145719,34.1875 11.9791766,33.7578168 10,32.8984375 C8.02082344,32.0390582 6.28906992,30.8802156 4.8046875,29.421875 C3.32030508,27.9635344 2.1484418,26.2317809 1.2890625,24.2265625 C0.429683203,22.2213441 0,20.0989695 0,17.859375 L0,17.234375 C0,14.9947805 0.429683203,12.8854266 1.2890625,10.90625 C2.1484418,8.92707344 3.32030508,7.19531992 4.8046875,5.7109375 C6.28906992,4.22655508 8.02082344,3.0546918 10,2.1953125 C11.9791766,1.3359332 14.1145719,0.90625 16.40625,0.90625 L54.765625,0.90625 Z M66.640625,17.859375 L66.640625,17.234375 C66.640625,13.9531086 65.4817824,11.1536574 63.1640625,8.8359375 C60.8463426,6.51821758 58.0468914,5.359375 54.765625,5.359375 L16.40625,5.359375 C13.0729,5.359375 10.2474074,6.51821758 7.9296875,8.8359375 C5.61196758,11.1536574 4.453125,13.9531086 4.453125,17.234375 L4.453125,17.859375 C4.453125,21.1406414 5.61196758,23.9531133 7.9296875,26.296875 C10.2474074,28.6406367 13.0729,29.8125 16.40625,29.8125 L54.765625,29.8125 C58.0468914,29.8125 60.8463426,28.6406367 63.1640625,26.296875 C65.4817824,23.9531133 66.640625,21.1406414 66.640625,17.859375 Z M52.109375,8.640625 C55.1302234,8.640625 57.7604055,9.65623984 60,11.6875 C62.2395945,13.7187602 63.359375,16.2187352 63.359375,19.1875 L63.359375,19.8125 C63.359375,20.072918 63.2421887,20.3203113 63.0078125,20.5546875 C62.7734363,20.7890637 62.5000016,20.90625 62.1875,20.90625 C61.927082,20.90625 61.6796887,20.7890637 61.4453125,20.5546875 C61.2109363,20.3203113 61.09375,20.072918 61.09375,19.8125 L61.09375,19.1875 C61.09375,16.8437383 60.2083422,14.8776121 58.4375,13.2890625 C56.6666578,11.7005129 54.5573039,10.90625 52.109375,10.90625 L47.34375,10.90625 C47.0312484,10.90625 46.7708344,10.7890637 46.5625,10.5546875 C46.3541656,10.3203113 46.25,10.072918 46.25,9.8125 C46.25,9.49999844 46.3541656,9.22656367 46.5625,8.9921875 C46.7708344,8.75781133 47.0312484,8.640625 47.34375,8.640625 L52.109375,8.640625 Z M42.890625,8.640625 C43.2031266,8.640625 43.4765613,8.75781133 43.7109375,8.9921875 C43.9453137,9.22656367 44.0625,9.49999844 44.0625,9.8125 C44.0625,10.072918 43.9453137,10.3203113 43.7109375,10.5546875 C43.4765613,10.7890637 43.2031266,10.90625 42.890625,10.90625 L40.703125,10.90625 C40.3906234,10.90625 40.1302094,10.7890637 39.921875,10.5546875 C39.7135406,10.3203113 39.609375,10.072918 39.609375,9.8125 C39.609375,9.49999844 39.7135406,9.22656367 39.921875,8.9921875 C40.1302094,8.75781133 40.3906234,8.640625 40.703125,8.640625 L42.890625,8.640625 Z M17.421875,7.546875 C20.0781383,7.546875 22.3437406,8.48436563 24.21875,10.359375 C26.0937594,12.2343844 27.03125,14.4999867 27.03125,17.15625 C27.03125,19.8125133 26.0937594,22.0911363 24.21875,23.9921875 C22.3437406,25.8932387 20.0781383,26.84375 17.421875,26.84375 C14.7656117,26.84375 12.4869887,25.8932387 10.5859375,23.9921875 C8.68488633,22.0911363 7.734375,19.8125133 7.734375,17.15625 C7.734375,14.4999867 8.68488633,12.2343844 10.5859375,10.359375 C12.4869887,8.48436563 14.7656117,7.546875 17.421875,7.546875 Z M17.421875,22.390625 C18.828132,22.390625 20.0390574,21.8828176 21.0546875,20.8671875 C22.0703176,19.8515574 22.578125,18.6145906 22.578125,17.15625 C22.578125,15.749993 22.0703176,14.5260469 21.0546875,13.484375 C20.0390574,12.4427031 18.828132,11.921875 17.421875,11.921875 C15.9635344,11.921875 14.7265676,12.4427031 13.7109375,13.484375 C12.6953074,14.5260469 12.1875,15.749993 12.1875,17.15625 C12.1875,18.6145906 12.6953074,19.8515574 13.7109375,20.8671875 C14.7265676,21.8828176 15.9635344,22.390625 17.421875,22.390625 Z M54.765625,39.8125 C57.0052195,39.8125 59.1145734,40.2291625 61.09375,41.0625 C63.0729266,41.8958375 64.8046801,43.0546801 66.2890625,44.5390625 C67.7734449,46.0234449 68.9453082,47.7682191 69.8046875,49.7734375 C70.6640668,51.7786559 71.09375,53.9010305 71.09375,56.140625 L71.09375,56.765625 C71.09375,59.0052195 70.6640668,61.1145734 69.8046875,63.09375 C68.9453082,65.0729266 67.7734449,66.8046801 66.2890625,68.2890625 C64.8046801,69.7734449 63.0729266,70.9453082 61.09375,71.8046875 C59.1145734,72.6640668 57.0052195,73.09375 54.765625,73.09375 L16.40625,73.09375 C14.1145719,73.09375 11.9791766,72.6640668 10,71.8046875 C8.02082344,70.9453082 6.28906992,69.7734449 4.8046875,68.2890625 C3.32030508,66.8046801 2.1484418,65.0729266 1.2890625,63.09375 C0.429683203,61.1145734 0,59.0052195 0,56.765625 L0,56.140625 C0,53.9010305 0.429683203,51.7786559 1.2890625,49.7734375 C2.1484418,47.7682191 3.32030508,46.0234449 4.8046875,44.5390625 C6.28906992,43.0546801 8.02082344,41.8958375 10,41.0625 C11.9791766,40.2291625 14.1145719,39.8125 16.40625,39.8125 L54.765625,39.8125 Z M66.640625,56.765625 L66.640625,56.140625 C66.640625,52.8593586 65.4817824,50.0468867 63.1640625,47.703125 C60.8463426,45.3593633 58.0468914,44.1875 54.765625,44.1875 L16.40625,44.1875 C13.0729,44.1875 10.2474074,45.3593633 7.9296875,47.703125 C5.61196758,50.0468867 4.453125,52.8593586 4.453125,56.140625 L4.453125,56.765625 C4.453125,60.0468914 5.61196758,62.8463426 7.9296875,65.1640625 C10.2474074,67.4817824 13.0729,68.640625 16.40625,68.640625 L54.765625,68.640625 C58.0468914,68.640625 60.8463426,67.4817824 63.1640625,65.1640625 C65.4817824,62.8463426 66.640625,60.0468914 66.640625,56.765625 Z M8.828125,55.90625 C9.14062656,55.9583336 9.41406133,56.1015613 9.6484375,56.3359375 C9.88281367,56.5703137 9.97395859,56.8437484 9.921875,57.15625 C9.921875,57.3125008 9.9348957,57.4687492 9.9609375,57.625 C9.9869793,57.7812508 10,57.9374992 10,58.09375 L10,58.328125 C10,58.588543 9.89583437,58.8359363 9.6875,59.0703125 C9.47916563,59.3046887 9.21875156,59.421875 8.90625,59.421875 C8.59374844,59.421875 8.33333437,59.3046887 8.125,59.0703125 C7.91666563,58.8359363 7.8125,58.588543 7.8125,58.328125 L7.8125,58.09375 C7.8125,57.8854156 7.78645859,57.6901051 7.734375,57.5078125 C7.68229141,57.3255199 7.65625,57.1302094 7.65625,56.921875 C7.70833359,56.6093734 7.83854063,56.3619801 8.046875,56.1796875 C8.25520937,55.9973949 8.51562344,55.90625 8.828125,55.90625 Z M18.359375,47.15625 C18.6718766,47.15625 18.9322906,47.2734363 19.140625,47.5078125 C19.3489594,47.7421887 19.453125,48.0156234 19.453125,48.328125 C19.453125,48.588543 19.3489594,48.8359363 19.140625,49.0703125 C18.9322906,49.3046887 18.6718766,49.421875 18.359375,49.421875 C16.7968672,49.421875 15.3515691,49.8124961 14.0234375,50.59375 C12.6953059,51.3750039 11.6406289,52.4166602 10.859375,53.71875 C10.7552078,53.9270844 10.6119801,54.0833328 10.4296875,54.1875 C10.2473949,54.2916672 10.0520844,54.34375 9.84375,54.34375 C9.79166641,54.34375 9.71354219,54.3307293 9.609375,54.3046875 C9.50520781,54.2786457 9.40104219,54.2395836 9.296875,54.1875 C9.03645703,54.0312492 8.86718789,53.7968766 8.7890625,53.484375 C8.71093711,53.1718734 8.74999922,52.885418 8.90625,52.625 C9.89583828,50.958325 11.2369707,49.6302133 12.9296875,48.640625 C14.6224043,47.6510367 16.432282,47.15625 18.359375,47.15625 Z M53.046875,46.375 C55.7031383,46.375 57.9817613,47.3255113 59.8828125,49.2265625 C61.7838637,51.1276137 62.734375,53.4062367 62.734375,56.0625 C62.734375,58.7187633 61.7838637,60.9973863 59.8828125,62.8984375 C57.9817613,64.7994887 55.7031383,65.75 53.046875,65.75 C50.3906117,65.75 48.1250094,64.7994887 46.25,62.8984375 C44.3749906,60.9973863 43.4375,58.7187633 43.4375,56.0625 C43.4375,53.4062367 44.3749906,51.1276137 46.25,49.2265625 C48.1250094,47.3255113 50.3906117,46.375 53.046875,46.375 Z M53.046875,61.296875 C54.5052156,61.296875 55.7421824,60.7890676 56.7578125,59.7734375 C57.7734426,58.7578074 58.28125,57.5208406 58.28125,56.0625 C58.28125,54.6041594 57.7734426,53.3671926 56.7578125,52.3515625 C55.7421824,51.3359324 54.5052156,50.828125 53.046875,50.828125 C51.640618,50.828125 50.4166719,51.3359324 49.375,52.3515625 C48.3333281,53.3671926 47.8125,54.6041594 47.8125,56.0625 C47.8125,57.5208406 48.3333281,58.7578074 49.375,59.7734375 C50.4166719,60.7890676 51.640618,61.296875 53.046875,61.296875 Z" id="" fill="#000000"></path>
                    </g>
                </g>
            </g>
        </g>
    </g>
</svg>