<?xml version="1.0" encoding="UTF-8"?>
<svg width="75px" height="74px" viewBox="0 0 75 74" version="1.1" xmlns="http://www.w3.org/2000/svg" xmlns:xlink="http://www.w3.org/1999/xlink">
    <!-- Generator: Sketch 50.2 (55047) - http://www.bohemiancoding.com/sketch -->
    <title>Group 4</title>
    <desc>Created with Sketch.</desc>
    <defs></defs>
    <g id="Page-3" stroke="none" stroke-width="1" fill="none" fill-rule="evenodd">
        <g id="Desktop-HD" transform="translate(-152.000000, -1073.000000)">
            <g id="features" transform="translate(65.000000, 706.000000)">
                <g id="Group" transform="translate(87.000000, 366.000000)">
                    <g id="Group-4" transform="translate(0.000000, 1.000000)">
                        <path d="M55.34375,46.015625 C57.8958461,45.8072906 60.2786348,45.1302141 62.4921875,43.984375 C64.7057402,42.8385359 66.6067629,41.3411551 68.1953125,39.4921875 C69.7838621,37.6432199 70.9817668,35.5468867 71.7890625,33.203125 C72.5963582,30.8593633 72.8958344,28.3854297 72.6875,25.78125 C72.4791656,23.1770703 71.8020891,20.7812609 70.65625,18.59375 C69.5104109,16.4062391 68.0260508,14.5182371 66.203125,12.9296875 C64.3801992,11.3411379 62.283866,10.1432332 59.9140625,9.3359375 C57.544259,8.5286418 55.0573047,8.22916562 52.453125,8.4375 C49.9010289,8.59375078 47.5182402,9.25780664 45.3046875,10.4296875 C43.0911348,11.6015684 41.1901121,13.0989492 39.6015625,14.921875 C38.0130129,16.7448008 36.8151082,18.841134 36.0078125,21.2109375 C35.2005168,23.580741 34.9010406,26.0416539 35.109375,28.59375 C35.2135422,30.000007 35.4609355,31.3411395 35.8515625,32.6171875 C36.2421895,33.8932355 36.7499969,35.1302023 37.375,36.328125 C37.6875016,36.9010445 37.7526051,37.4869762 37.5703125,38.0859375 C37.3880199,38.6848988 37.0364609,39.1406234 36.515625,39.453125 C35.9427055,39.7656266 35.3567738,39.8307301 34.7578125,39.6484375 C34.1588512,39.4661449 33.7031266,39.1145859 33.390625,38.59375 L32.765625,37.34375 L7.53125,60.390625 L7.53125,71.5625 L16.671875,71.5625 L16.671875,68.671875 C16.671875,68.0468719 16.9322891,67.4088574 17.453125,66.7578125 C17.9739609,66.1067676 18.5729133,65.78125 19.25,65.78125 L25.5,65.78125 L24.796875,61.953125 C24.7447914,61.5885398 24.7578121,61.2239602 24.8359375,60.859375 C24.9140629,60.4947898 25.0572906,60.182293 25.265625,59.921875 C25.526043,59.661457 25.7994777,59.4401051 26.0859375,59.2578125 C26.3723973,59.0755199 26.6979148,58.984375 27.0625,58.984375 L32.84375,58.984375 L43,47.96875 C42.8958328,47.9166664 42.8046879,47.8645836 42.7265625,47.8125 C42.6484371,47.7604164 42.5572922,47.7083336 42.453125,47.65625 C41.8802055,47.3437484 41.5156258,46.8880238 41.359375,46.2890625 C41.2031242,45.6901012 41.2812484,45.1041695 41.59375,44.53125 C41.9062516,43.9583305 42.3619762,43.5937508 42.9609375,43.4375 C43.5598988,43.2812492 44.1458305,43.3593734 44.71875,43.671875 C46.3333414,44.5572961 48.0390535,45.2083312 49.8359375,45.625 C51.6328215,46.0416687 53.4687406,46.1718758 55.34375,46.015625 Z" id="Path" fill="#CED4E4"></path>
                        <circle id="Oval-2" fill="#FFFFFF" cx="49" cy="14" r="6"></circle>
                        <circle id="Oval-2" fill="#FFFFFF" cx="48" cy="25" r="3"></circle>
                        <path d="M74.296875,22.46875 C74.5052094,25.6979328 74.1015676,28.7708188 73.0859375,31.6875 C72.0703074,34.6041813 70.5859473,37.1953012 68.6328125,39.4609375 C66.6796777,41.7265738 64.3359512,43.5885344 61.6015625,45.046875 C58.8671738,46.5052156 55.8854328,47.3385406 52.65625,47.546875 C52.3437484,47.5989586 52.0442723,47.625 51.7578125,47.625 L50.859375,47.625 C49.8177031,47.625 48.7890676,47.5598965 47.7734375,47.4296875 C46.7578074,47.2994785 45.7291719,47.0781266 44.6875,46.765625 L32.578125,60.046875 C32.3697906,60.2552094 32.1223973,60.3854164 31.8359375,60.4375 C31.5494777,60.4895836 31.2239602,60.515625 30.859375,60.515625 L26.71875,60.515625 L27.421875,65.046875 C27.4739586,65.3593766 27.4609379,65.6588527 27.3828125,65.9453125 C27.3046871,66.2317723 27.1614594,66.4791656 26.953125,66.6875 C26.692707,66.947918 26.4192723,67.1302078 26.1328125,67.234375 C25.8463527,67.3385422 25.5208352,67.390625 25.15625,67.390625 L18.28125,67.390625 L18.28125,71.453125 C18.28125,72.0781281 18.0989602,72.5078113 17.734375,72.7421875 C17.3697898,72.9765637 16.8750031,73.09375 16.25,73.09375 L2.5,73.09375 C1.87499688,73.09375 1.30208594,72.9765637 0.78125,72.7421875 C0.260414062,72.5078113 0,72.0781281 0,71.453125 L0,56.375 C0,56.0624984 0.0781242188,55.7630223 0.234375,55.4765625 C0.390625781,55.1901027 0.598957031,54.916668 0.859375,54.65625 L27.34375,30.4375 C27.5000008,30.2812492 27.6432285,30.1640629 27.7734375,30.0859375 C27.9036465,30.0078121 28.0468742,29.9427086 28.203125,29.890625 C28.0468742,29.2656219 27.9036465,28.6276074 27.7734375,27.9765625 C27.6432285,27.3255176 27.5520836,26.6614617 27.5,25.984375 C27.2916656,22.7551922 27.6953074,19.6692855 28.7109375,16.7265625 C29.7265676,13.7838395 31.2109277,11.1796988 33.1640625,8.9140625 C35.1171973,6.64842617 37.4609238,4.79948633 40.1953125,3.3671875 C42.9297012,1.93488867 45.9114422,1.08854297 49.140625,0.828125 C52.3698078,0.619790625 55.4426938,1.01041172 58.359375,2 C61.2760562,2.98958828 63.8801969,4.47394844 66.171875,6.453125 C68.4635531,8.43230156 70.3255137,10.7890488 71.7578125,13.5234375 C73.1901113,16.2578262 74.036457,19.2395672 74.296875,22.46875 Z M52.34375,43.015625 C54.8958461,42.8072906 57.2786348,42.1302141 59.4921875,40.984375 C61.7057402,39.8385359 63.6067629,38.3411551 65.1953125,36.4921875 C66.7838621,34.6432199 67.9817668,32.5468867 68.7890625,30.203125 C69.5963582,27.8593633 69.8958344,25.3854297 69.6875,22.78125 C69.4791656,20.1770703 68.8020891,17.7812609 67.65625,15.59375 C66.5104109,13.4062391 65.0260508,11.5182371 63.203125,9.9296875 C61.3801992,8.34113789 59.283866,7.1432332 56.9140625,6.3359375 C54.544259,5.5286418 52.0573047,5.22916563 49.453125,5.4375 C46.9010289,5.59375078 44.5182402,6.25780664 42.3046875,7.4296875 C40.0911348,8.60156836 38.1901121,10.0989492 36.6015625,11.921875 C35.0130129,13.7448008 33.8151082,15.841134 33.0078125,18.2109375 C32.2005168,20.580741 31.9010406,23.0416539 32.109375,25.59375 C32.2135422,27.000007 32.4609355,28.3411395 32.8515625,29.6171875 C33.2421895,30.8932355 33.7499969,32.1302023 34.375,33.328125 C34.6875016,33.9010445 34.7526051,34.4869762 34.5703125,35.0859375 C34.3880199,35.6848988 34.0364609,36.1406234 33.515625,36.453125 C32.9427055,36.7656266 32.3567738,36.8307301 31.7578125,36.6484375 C31.1588512,36.4661449 30.7031266,36.1145859 30.390625,35.59375 L29.765625,34.34375 L4.53125,57.390625 L4.53125,68.5625 L13.671875,68.5625 L13.671875,65.671875 C13.671875,65.0468719 13.9322891,64.4088574 14.453125,63.7578125 C14.9739609,63.1067676 15.5729133,62.78125 16.25,62.78125 L22.5,62.78125 L21.796875,58.953125 C21.7447914,58.5885398 21.7578121,58.2239602 21.8359375,57.859375 C21.9140629,57.4947898 22.0572906,57.182293 22.265625,56.921875 C22.526043,56.661457 22.7994777,56.4401051 23.0859375,56.2578125 C23.3723973,56.0755199 23.6979148,55.984375 24.0625,55.984375 L29.84375,55.984375 L40,44.96875 C39.8958328,44.9166664 39.8046879,44.8645836 39.7265625,44.8125 C39.6484371,44.7604164 39.5572922,44.7083336 39.453125,44.65625 C38.8802055,44.3437484 38.5156258,43.8880238 38.359375,43.2890625 C38.2031242,42.6901012 38.2812484,42.1041695 38.59375,41.53125 C38.9062516,40.9583305 39.3619762,40.5937508 39.9609375,40.4375 C40.5598988,40.2812492 41.1458305,40.3593734 41.71875,40.671875 C43.3333414,41.5572961 45.0390535,42.2083313 46.8359375,42.625 C48.6328215,43.0416688 50.4687406,43.1718758 52.34375,43.015625 Z M54.921875,15.125 C56.328132,15.125 57.5260367,15.6197867 58.515625,16.609375 C59.5052133,17.5989633 60,18.796868 60,20.203125 C60,21.609382 59.5052133,22.8072867 58.515625,23.796875 C57.5260367,24.7864633 56.328132,25.28125 54.921875,25.28125 C54.2447883,25.28125 53.5937531,25.1640637 52.96875,24.9296875 C52.3437469,24.6953113 51.7708359,24.3177109 51.25,23.796875 C50.7812477,23.3281227 50.416668,22.7812531 50.15625,22.15625 C49.895832,21.5312469 49.765625,20.8802117 49.765625,20.203125 C49.765625,18.796868 50.2734324,17.5989633 51.2890625,16.609375 C52.3046926,15.6197867 53.515618,15.125 54.921875,15.125 Z M54.921875,23.015625 C55.7031289,23.015625 56.3671848,22.7421902 56.9140625,22.1953125 C57.4609402,21.6484348 57.734375,20.9843789 57.734375,20.203125 C57.734375,19.4218711 57.4609402,18.7578152 56.9140625,18.2109375 C56.3671848,17.6640598 55.7031289,17.390625 54.921875,17.390625 C54.1406211,17.390625 53.4635445,17.6640598 52.890625,18.2109375 C52.3177055,18.7578152 52.03125,19.4218711 52.03125,20.203125 C52.03125,20.9843789 52.3177055,21.6484348 52.890625,22.1953125 C53.4635445,22.7421902 54.1406211,23.015625 54.921875,23.015625 Z M48.90625,9.1875 C49.2187516,9.1875 49.4921863,9.29166563 49.7265625,9.5 C49.9609387,9.70833438 50.078125,9.96874844 50.078125,10.28125 C50.078125,10.5937516 49.9609387,10.8671863 49.7265625,11.1015625 C49.4921863,11.3359387 49.2187516,11.453125 48.90625,11.453125 L48.046875,11.453125 C47.9947914,11.453125 47.96875,11.4661457 47.96875,11.4921875 C47.96875,11.5182293 47.9427086,11.53125 47.890625,11.53125 C47.630207,11.53125 47.3828137,11.4270844 47.1484375,11.21875 C46.9140613,11.0104156 46.796875,10.7500016 46.796875,10.4375 C46.7447914,10.1249984 46.8229156,9.85156367 47.03125,9.6171875 C47.2395844,9.38281133 47.4999984,9.23958359 47.8125,9.1875 L48.90625,9.1875 Z M43.4375,10.359375 C43.7500016,10.2031242 44.0494777,10.1901035 44.3359375,10.3203125 C44.6223973,10.4505215 44.8437492,10.645832 45,10.90625 C45.1041672,11.2187516 45.1041672,11.5182277 45,11.8046875 C44.8958328,12.0911473 44.713543,12.2864578 44.453125,12.390625 C42.526032,13.2760461 40.9895891,14.6171785 39.84375,16.4140625 C38.6979109,18.2109465 38.125,20.1510313 38.125,22.234375 C38.125,22.5468766 38.0208344,22.8072906 37.8125,23.015625 C37.6041656,23.2239594 37.3437516,23.328125 37.03125,23.328125 C36.7187484,23.328125 36.4453137,23.2239594 36.2109375,23.015625 C35.9765613,22.8072906 35.859375,22.5468766 35.859375,22.234375 C35.859375,19.6822789 36.5494723,17.3255316 37.9296875,15.1640625 C39.3099027,13.0025934 41.1458219,11.4010469 43.4375,10.359375 Z M27.890625,39.8125 C28.0989594,39.6041656 28.3593734,39.5130207 28.671875,39.5390625 C28.9843766,39.5651043 29.2447906,39.6822906 29.453125,39.890625 C29.6614594,40.151043 29.7526043,40.4374984 29.7265625,40.75 C29.7005207,41.0625016 29.5833344,41.3229156 29.375,41.53125 L14.0625,54.8125 C13.9583328,54.9166672 13.8411465,54.9947914 13.7109375,55.046875 C13.5807285,55.0989586 13.4635422,55.125 13.359375,55.125 C13.2031242,55.125 13.0468758,55.0859379 12.890625,55.0078125 C12.7343742,54.9296871 12.6041672,54.8385422 12.5,54.734375 C12.2916656,54.473957 12.1875,54.1875016 12.1875,53.875 C12.1875,53.5624984 12.317707,53.3020844 12.578125,53.09375 L27.890625,39.8125 Z M10.078125,55.28125 C10.2864594,55.0729156 10.5468734,54.9817707 10.859375,55.0078125 C11.1718766,55.0338543 11.4322906,55.177082 11.640625,55.4375 C11.8489594,55.6458344 11.9401043,55.9062484 11.9140625,56.21875 C11.8880207,56.5312516 11.7708344,56.7916656 11.5625,57 L9.6875,58.640625 C9.58333281,58.7447922 9.46614648,58.8229164 9.3359375,58.875 C9.20572852,58.9270836 9.06250078,58.953125 8.90625,58.953125 C8.74999922,58.953125 8.59375078,58.9140629 8.4375,58.8359375 C8.28124922,58.7578121 8.15104219,58.6666672 8.046875,58.5625 C7.83854063,58.302082 7.7473957,58.0156266 7.7734375,57.703125 C7.7994793,57.3906234 7.94270703,57.1302094 8.203125,56.921875 L10.078125,55.28125 Z" id="" fill="#000000"></path>
                    </g>
                </g>
            </g>
        </g>
    </g>
</svg>