<?xml version="1.0" encoding="UTF-8"?>
<svg width="73px" height="69px" viewBox="0 0 73 69" version="1.1" xmlns="http://www.w3.org/2000/svg" xmlns:xlink="http://www.w3.org/1999/xlink">
    <!-- Generator: Sketch 50.2 (55047) - http://www.bohemiancoding.com/sketch -->
    <title>Group 6</title>
    <desc>Created with Sketch.</desc>
    <defs></defs>
    <g id="Page-3" stroke="none" stroke-width="1" fill="none" fill-rule="evenodd" opacity="0.900000036">
        <g id="Desktop-HD" transform="translate(-945.000000, -893.000000)">
            <g id="features" transform="translate(56.000000, 699.000000)">
                <g id="Group" transform="translate(889.000000, 189.000000)">
                    <g id="Group-6" transform="translate(0.000000, 5.000000)">
                        <path d="M66.0511,45.7635377 C65.7046,44.3794377 65.3355,43.0011377 64.9384,41.6304377 C64.3883,39.7313377 63.7873,37.8466377 63.1267,35.9830377 C62.636,34.5988377 62.1125,33.2261377 61.5516,31.8688377 C61.113,30.8071377 60.6515,29.7547377 60.1651,28.7140377 C59.8,27.9329377 59.4208,27.1584377 59.0265,26.3917377 C56.5652,21.6048377 53.4979,17.0827377 49.6285,13.3188377 C49.0563,12.7622377 48.4672,12.2230377 47.8615,11.7030377 C47.0457,11.0026377 46.1996,10.3374377 45.3251,9.7117377 C44.0749,8.8175377 42.7664,8.0048377 41.4091,7.2834377 C39.3682,6.1987377 37.2185,5.3232377 35.0044,4.6611377 C32.492,3.9098377 29.9015,3.4333377 27.2912,3.1927377 C26.0119,3.0748377 24.7291,3.0174377 23.4446,3.0016377 C23.2249,3.0003377 23.0052,2.9998377 22.7854,3.0000377 C21.0791,3.0126377 19.3755,3.1003377 17.677,3.2660377 C15.4895,3.4796377 13.318,3.8181377 11.1615,4.2404377 C15.0095,12.1255377 19.725,19.6270377 25.5363,26.2225377 C28.8692,30.0053377 32.5574,33.4777377 36.5785,36.5212377 C40.5703,39.5426377 44.8836,42.1333377 49.4283,44.2332377 C52.8429,45.8109377 56.3832,47.1121377 59.9999,48.1444377 C62.1113,48.7471377 64.248,49.2556377 66.4015,49.6830377 C66.1961,49.3915377 64.5431,43.6988377 66.0511,45.7635377 Z" id="Path" fill="#CED4E4"></path>
                        <path d="M64.3948,57.1215377 C64.3031,57.1066377 64.2113,57.0917377 64.1196,57.0767377 C61.6827,56.6680377 59.2624,56.1687377 56.8679,55.5577377 C52.8498,54.5325377 48.9082,53.2047377 45.0999,51.5621377 C42.3411,50.3721377 39.6532,49.0176377 37.0571,47.5050377 C34.2744,45.8835377 31.5981,44.0807377 29.0467,42.1154377 C24.3313,38.4830377 20.0548,34.2983377 16.2431,29.7298377 C12.1637,24.8405377 8.616,19.5206377 5.5313,13.9537377 C4.0664,11.3102377 2.7096,8.6092377 1.4375,5.8680377 L0,2.7469377 L3.3716,1.9467377 C3.6414,1.8841377 3.9114,1.8220377 4.1816,1.7607377 C5.1126,1.5540377 6.0458,1.3585377 6.9832,1.1824377 C8.6618,0.867137698 10.3511,0.606937698 12.048,0.411437698 C13.5485,0.238537698 15.055,0.116237698 16.5641,0.0518376976 C17.2974,0.0206376976 18.0309,0.00543769764 18.7649,3.76976378e-05 C19.0065,-0.000162302362 19.2482,0.000437697638 19.4899,0.00173769764 C21.0291,0.0208376976 22.5661,0.0948376976 24.0981,0.247137698 C26.9202,0.527637698 29.719,1.0579377 32.437,1.8707377 C35.0722,2.6588377 37.627,3.7125377 40.0452,5.0236377 C41.6886,5.9147377 43.2678,6.9231377 44.7704,8.0353377 C45.8461,8.8316377 46.8824,9.6808377 47.8771,10.5762377 C48.636,11.2594377 49.3706,11.9695377 50.0807,12.7033377 C54.4448,17.2130377 57.8446,22.5794377 60.524,28.2342377 C60.9288,29.0885377 61.3177,29.9504377 61.6915,30.8187377 C62.1868,31.9688377 62.6557,33.1302377 63.1008,34.3007377 C63.7184,35.9251377 64.2899,37.5669377 64.8208,39.2217377 C65.52,41.4013377 66.1489,43.6033377 66.7183,45.8204377 C67.4051,48.4952377 68.0007,51.1917377 68.5339,53.9011377 L68.6431,54.4654377 C68.8837,54.8025377 69.1167,55.1451377 69.341,55.4939377 C70.7008,57.6080377 71.7451,59.9410377 72.2296,62.4155377 C72.3881,63.2251377 72.4866,64.0465377 72.5211,64.8708377 C72.5274,65.0199377 72.5315,65.1694377 72.5336,65.3186377 C72.5356,65.4599377 72.5384,65.6020377 72.5271,65.7431377 C72.5096,65.9606377 72.4635,66.1757377 72.3903,66.3812377 C72.2805,66.6897377 72.1096,66.9757377 71.8901,67.2187377 C71.695,67.4346377 71.4622,67.6158377 71.205,67.7520377 C70.98,67.8711377 70.7369,67.9556377 70.4865,68.0015377 C70.2719,68.0409377 70.0522,68.0521377 69.8347,68.0346377 C69.0664,67.9728377 68.3548,67.5478377 67.9361,66.9006377 C67.7582,66.6257377 67.6353,66.3160377 67.5762,65.9940377 C67.5564,65.8861377 67.5463,65.7784377 67.5383,65.6691377 C67.5342,65.5242377 67.5338,65.3792377 67.5308,65.2342377 C67.509,64.6098377 67.4427,63.9897377 67.3226,63.3763377 C66.8751,61.0907377 65.7615,58.9880377 64.3948,57.1215377 Z M62.0511,47.7635377 C61.7046,46.3794377 61.3355,45.0011377 60.9384,43.6304377 C60.3883,41.7313377 59.7873,39.8466377 59.1267,37.9830377 C58.636,36.5988377 58.1125,35.2261377 57.5516,33.8688377 C57.113,32.8071377 56.6515,31.7547377 56.1651,30.7140377 C55.8,29.9329377 55.4208,29.1584377 55.0265,28.3917377 C52.5652,23.6048377 49.4979,19.0827377 45.6285,15.3188377 C45.0563,14.7622377 44.4672,14.2230377 43.8615,13.7030377 C43.0457,13.0026377 42.1996,12.3374377 41.3251,11.7117377 C40.0749,10.8175377 38.7664,10.0048377 37.4091,9.2834377 C35.3682,8.1987377 33.2185,7.3232377 31.0044,6.6611377 C28.492,5.9098377 25.9015,5.4333377 23.2912,5.1927377 C22.0119,5.0748377 20.7291,5.0174377 19.4446,5.0016377 C19.2249,5.0003377 19.0052,4.9998377 18.7854,5.0000377 C17.0791,5.0126377 15.3755,5.1003377 13.677,5.2660377 C11.4895,5.4796377 9.318,5.8181377 7.1615,6.2404377 L7.1518,6.2423377 C11.0095,14.1255377 15.725,21.6270377 21.5363,28.2225377 C24.8692,32.0053377 28.5574,35.4777377 32.5785,38.5212377 C36.5703,41.5426377 40.8836,44.1333377 45.4283,46.2332377 C48.8429,47.8109377 52.3832,49.1121377 55.9999,50.1444377 C58.1113,50.7471377 60.248,51.2556377 62.4015,51.6830377 C62.1961,51.3915377 61.99,51.1007377 61.783,50.8103377 C59.7788,47.9980377 57.7023,45.2367377 55.5424,42.5419377 C55.4868,42.5220377 55.4329,42.4971377 55.3816,42.4676377 C55.3174,42.4306377 55.2613,42.3862377 55.2051,42.3384377 C55.118,42.2526377 55.0347,42.1634377 54.946,42.0792377 C54.2153,41.4037377 53.2951,40.9684377 52.3613,40.6500377 C52.1283,40.5705377 51.8929,40.4983377 51.6557,40.4321377 C51.3335,40.3421377 51.0083,40.2633377 50.6812,40.1933377 C49.5189,39.9446377 48.3347,39.8034377 47.15,39.7175377 C45.4587,39.5950377 43.7619,39.5916377 42.0675,39.6391377 L41.9945,39.6384377 C41.8467,39.6263377 41.7069,39.5942377 41.5747,39.5249377 C41.4884,39.4796377 41.4089,39.4216377 41.3393,39.3534377 C41.0559,39.0755377 40.9636,38.6438377 41.1086,38.2743377 C41.1531,38.1609377 41.2184,38.0558377 41.3005,37.9658377 C41.4155,37.8396377 41.5627,37.7440377 41.7247,37.6903377 C41.795,37.6670377 41.8655,37.6547377 41.9386,37.6445377 C42.1238,37.6326377 42.1237,37.6367377 42.349,37.6304377 C42.6817,37.6227377 43.0143,37.6167377 43.3471,37.6125377 C43.6688,37.6102377 43.9905,37.6096377 44.3123,37.6108377 C45.8488,37.6256377 47.3856,37.6926377 48.9119,37.8778377 C50.0198,38.0123377 51.1245,38.2063377 52.2001,38.5075377 C51.4199,37.5972377 50.6288,36.6962377 49.8263,35.8053377 C49.3686,35.2972377 48.9071,34.7923377 48.4418,34.2910377 C48.3693,34.2710377 48.2986,34.2425377 48.2313,34.2055377 C48.1356,34.1529377 48.0488,34.0847377 47.9751,34.0042377 C47.8867,33.9075377 47.8177,33.7935377 47.773,33.6704377 C47.7568,33.6258377 47.7444,33.5808377 47.7352,33.5355377 C47.1393,32.9032377 46.5371,32.2769377 45.9285,31.6568377 C41.7196,27.3687377 37.1983,23.3709377 32.3068,19.8750377 C28.2936,17.0068377 24.0278,14.4790377 19.524,12.4598377 C17.8119,11.6922377 16.0667,11.0026377 14.2939,10.3883377 L14.1567,10.3289377 C14.1145,10.3026377 14.0701,10.2793377 14.0299,10.2498377 C13.9092,10.1612377 13.809,10.0456377 13.7386,9.9133377 C13.5474,9.5542377 13.5969,9.1026377 13.8614,8.7934377 C13.9263,8.7175377 14.0023,8.6517377 14.0868,8.5983377 C14.2133,8.5182377 14.3576,8.4673377 14.5064,8.4500377 C14.5559,8.4443377 14.6059,8.4460377 14.6557,8.4440377 C14.7052,8.4494377 14.7548,8.4549377 14.8043,8.4603377 L14.9488,8.4985377 C15.2629,8.6074377 15.5763,8.7181377 15.8892,8.8307377 C17.7158,9.4966377 19.5129,10.2393377 21.2748,11.0615377 C25.8967,13.2183377 30.2684,15.8897377 34.3779,18.9056377 C34.6593,19.1121377 34.9395,19.3202377 35.2184,19.5299377 C35.0334,18.5915377 34.7715,17.6695377 34.4191,16.7780377 C33.7557,15.0998377 32.7805,13.5582377 31.5655,12.2252377 C30.6521,11.2229377 29.613,10.3461377 28.5019,9.5712377 L28.446,9.5293377 C28.3211,9.4210377 28.2195,9.2966377 28.1541,9.1434377 C28.1176,9.0578377 28.0931,8.9670377 28.0816,8.8747377 C28.0348,8.4991377 28.2107,8.1200377 28.5277,7.9133377 C28.6672,7.8223377 28.8208,7.7754377 28.9849,7.7549377 C29.0546,7.7511377 29.0541,7.7511377 29.1244,7.7522377 C29.2181,7.7602377 29.3084,7.7742377 29.3977,7.8048377 C29.4646,7.8277377 29.5256,7.8588377 29.5874,7.8928377 C29.7181,7.9774377 29.844,8.0695377 29.9706,8.1600377 C31.1817,9.0373377 32.3075,10.0295377 33.2924,11.1566377 C34.6103,12.6646377 35.6581,14.3981377 36.3676,16.2715377 C36.7504,17.2824377 37.0357,18.3291377 37.2303,19.3921377 C37.3387,19.9845377 37.4173,20.5813377 37.474,21.1808377 L37.4833,21.2866377 C41.2039,24.2627377 44.7062,27.5112377 48.0176,30.9350377 L48.0438,30.9622377 L48.0484,30.9169377 C48.09,30.5077377 48.1214,30.0974377 48.1404,29.6865377 C48.1966,28.4702377 48.1501,27.2374377 47.8937,26.0440377 C47.7122,25.1994377 47.42,24.3718377 46.967,23.6331377 C46.795,23.3526377 46.5988,23.0909377 46.3855,22.8407377 L46.3447,22.7895377 C46.2563,22.6624377 46.1913,22.5265377 46.1631,22.3733377 C46.0862,21.9566377 46.2888,21.5256377 46.6586,21.3190377 C46.7946,21.2430377 46.9408,21.2062377 47.095,21.1932377 C47.1605,21.1920377 47.16,21.1920377 47.2258,21.1950377 C47.4018,21.2149377 47.5667,21.2671377 47.7136,21.3683377 C47.7681,21.4058377 47.8159,21.4489377 47.8634,21.4947377 C47.9366,21.5751377 47.9353,21.5757377 48.0058,21.6585377 C48.2825,21.9971377 48.5355,22.3514377 48.7568,22.7289377 C49.7059,24.3485377 50.0748,26.2411377 50.1473,28.0984377 C50.1608,28.4435377 50.164,28.7891377 50.1585,29.1344377 C50.1527,29.4958377 50.1373,29.8570377 50.1138,30.2177377 C50.0789,30.7516377 50.026,31.2842377 49.9587,31.8149377 C49.9157,32.1534377 49.8663,32.4908377 49.8121,32.8276377 C50.6148,33.6906377 51.4062,34.5639377 52.187,35.4467377 C53.2446,36.6424377 54.2827,37.8554377 55.3024,39.0835377 C55.3457,38.6445377 55.3736,38.2040377 55.3802,37.7623377 C55.3896,37.1337377 55.3576,36.5019377 55.251,35.8816377 C55.2125,35.6578377 55.1641,35.4355377 55.1031,35.2167377 C55.0728,35.1079377 55.0367,35.0009377 55.0045,34.8927377 C54.9923,34.8423377 54.9924,34.8427377 54.9828,34.7921377 C54.9665,34.6719377 54.9657,34.5529377 54.9898,34.4336377 C55.0518,34.1277377 55.2586,33.8630377 55.5404,33.7290377 C55.6504,33.6767377 55.766,33.6487377 55.8866,33.6355377 C55.9385,33.6325377 55.989,33.6322377 56.0409,33.6346377 C56.127,33.6429377 56.2106,33.6576377 56.2926,33.6856377 C56.4882,33.7522377 56.6606,33.8800377 56.7814,34.0476377 C56.832,34.1179377 56.8704,34.1937377 56.9034,34.2735377 C56.9402,34.3772377 56.9721,34.4824377 57.0035,34.5879377 C57.2898,35.5918377 57.3891,36.6359377 57.3813,37.6774377 C57.3724,38.8584377 57.229,40.0325377 57.0256,41.1946377 C57.1511,41.3509377 57.2763,41.5075377 57.4013,41.6643377 C58.9946,43.6638377 60.5431,45.6988377 62.0511,47.7635377 Z" id="Fill-1" fill="#000000"></path>
                        <path d="M14.8785733,8.53603968 C34.009976,10.4347295 49.5850367,23.2328231 61.6037553,46.9303202 C48.8731761,28.504461 33.2981154,15.7063675 14.8785733,8.53603968 Z" id="Path-8" fill="#FFFFFF"></path>
                    </g>
                </g>
            </g>
        </g>
    </g>
</svg>