<?xml version="1.0" encoding="UTF-8"?>
<svg width="73px" height="68px" viewBox="0 0 73 68" version="1.1" xmlns="http://www.w3.org/2000/svg" xmlns:xlink="http://www.w3.org/1999/xlink">
    <!-- Generator: Sketch 50.2 (55047) - http://www.bohemiancoding.com/sketch -->
    <title>Group 5</title>
    <desc>Created with Sketch.</desc>
    <defs></defs>
    <g id="Page-3" stroke="none" stroke-width="1" fill="none" fill-rule="evenodd">
        <g id="Desktop-HD" transform="translate(-949.000000, -724.000000)">
            <g id="features" transform="translate(65.000000, 706.000000)">
                <g id="Group" transform="translate(884.000000, 12.000000)">
                    <g id="Group-5" transform="translate(0.000000, 6.000000)">
                        <path d="M57.953125,60.390625 L63.8125,7.65625 L3.96875,43.828125 L24.094119,49.4356419 C44.5452626,31.4820187 54.7013896,22.592013 54.5625,22.765625 L29.59375,51.71875 L57.953125,60.390625 Z" id="Path" fill="#CED4E4"></path>
                        <path d="M71.796875,0.40625 C72.1614602,0.614584375 72.4348949,0.914060547 72.6171875,1.3046875 C72.7994801,1.69531445 72.8645836,2.12499766 72.8125,2.59375 L66.25,62.59375 C66.1979164,62.9583352 66.0807301,63.2838527 65.8984375,63.5703125 C65.7161449,63.8567723 65.494793,64.1041656 65.234375,64.3125 C65.0260406,64.4166672 64.8177094,64.4947914 64.609375,64.546875 C64.4010406,64.5989586 64.1927094,64.625 63.984375,64.625 L63.59375,64.625 C63.4895828,64.625 63.3854172,64.5989586 63.28125,64.546875 L40.625,57.59375 L29.609375,67.359375 C29.4010406,67.5677094 29.166668,67.7239578 28.90625,67.828125 C28.645832,67.9322922 28.3593766,67.984375 28.046875,67.984375 C27.9427078,67.984375 27.8255215,67.9713543 27.6953125,67.9453125 C27.5651035,67.9192707 27.4479172,67.8802086 27.34375,67.828125 C26.9791648,67.7239578 26.6536473,67.5156266 26.3671875,67.203125 C26.0807277,66.8906234 25.9114586,66.5260437 25.859375,66.109375 L23.046875,52.28125 L1.71875,45.71875 C1.30208125,45.6145828 0.937501562,45.3802102 0.625,45.015625 C0.312498437,44.6510398 0.130208594,44.2604187 0.078125,43.84375 C0.0260414062,43.3749977 0.104165625,42.9453145 0.3125,42.5546875 C0.520834375,42.1640605 0.807289844,41.838543 1.171875,41.578125 L69.375,0.328125 C69.7395852,0.119790625 70.143227,0.015625 70.5859375,0.015625 C71.028648,0.015625 71.4322898,0.145832031 71.796875,0.40625 Z M29.53125,61.34375 L35.46875,56.03125 L28.046875,53.765625 L29.53125,61.34375 Z M61.953125,59.390625 L67.8125,6.65625 L7.96875,42.828125 L31.25,49.9375 L54.84375,22.28125 C55.0520844,22.020832 55.3124984,21.8776043 55.625,21.8515625 C55.9375016,21.8255207 56.223957,21.9166656 56.484375,22.125 C56.6927094,22.3333344 56.8098957,22.5937484 56.8359375,22.90625 C56.8619793,23.2187516 56.7708344,23.505207 56.5625,23.765625 L33.59375,50.71875 L61.953125,59.390625 Z M59.921875,39.390625 C59.6093734,39.3385414 59.3619801,39.1953137 59.1796875,38.9609375 C58.9973949,38.7265613 58.90625,38.4531266 58.90625,38.140625 L59.140625,36.421875 C59.1927086,36.1093734 59.3359363,35.8489594 59.5703125,35.640625 C59.8046887,35.4322906 60.0781234,35.3541664 60.390625,35.40625 C60.7031266,35.4583336 60.9635406,35.6015613 61.171875,35.8359375 C61.3802094,36.0703137 61.4583336,36.3437484 61.40625,36.65625 L61.171875,38.375 C61.171875,38.6875016 61.0546887,38.9348949 60.8203125,39.1171875 C60.5859363,39.2994801 60.338543,39.390625 60.078125,39.390625 L59.921875,39.390625 Z M58.4375,51.578125 C58.1249984,51.5260414 57.8645844,51.3828137 57.65625,51.1484375 C57.4479156,50.9140613 57.3697914,50.6406266 57.421875,50.328125 L58.515625,42.671875 C58.5677086,42.3593734 58.723957,42.1119801 58.984375,41.9296875 C59.244793,41.7473949 59.5312484,41.65625 59.84375,41.65625 C60.1562516,41.7083336 60.4036449,41.864582 60.5859375,42.125 C60.7682301,42.385418 60.8333336,42.6718734 60.78125,42.984375 L59.6875,50.640625 C59.6354164,50.901043 59.5052094,51.1223949 59.296875,51.3046875 C59.0885406,51.4869801 58.854168,51.578125 58.59375,51.578125 C58.5416664,51.578125 58.5026043,51.578125 58.4765625,51.578125 C58.4505207,51.578125 58.4375,51.578125 58.4375,51.578125 Z" id="send---icons" fill="#000000"></path>
                    </g>
                </g>
            </g>
        </g>
    </g>
</svg>