<?xml version="1.0" encoding="UTF-8"?>
<svg width="76px" height="69px" viewBox="0 0 76 69" version="1.1" xmlns="http://www.w3.org/2000/svg" xmlns:xlink="http://www.w3.org/1999/xlink">
    <!-- Generator: Sketch 50.2 (55047) - http://www.bohemiancoding.com/sketch -->
    <title>React-icon</title>
    <desc>Created with Sketch.</desc>
    <defs></defs>
    <g id="Page-3" stroke="none" stroke-width="1" fill="none" fill-rule="evenodd">
        <g id="Desktop-HD" transform="translate(-944.000000, -1064.000000)">
            <g id="React-icon" transform="translate(926.000000, 1049.000000)">
                <g id="Group-8" transform="translate(55.456773, 49.296632) rotate(-24.000000) translate(-55.456773, -49.296632) translate(9.956773, 15.796632)" fill="#CED4E4">
                    <ellipse id="Oval-5" transform="translate(45.500000, 33.500000) rotate(-26.000000) translate(-45.500000, -33.500000) " cx="45.5" cy="33.5" rx="42.4666667" ry="16.5"></ellipse>
                </g>
                <path d="M93.5555556,48.6891014 C93.5555556,43.6781367 87.2874938,38.9292839 77.6774924,35.9843785 C79.895185,26.178306 78.9095439,18.3766193 74.5665625,15.8788461 C73.5655207,15.2929487 72.3950718,15.0154184 71.1168184,15.0154184 L71.1168184,18.4537111 C71.825248,18.4537111 72.3950718,18.5924763 72.8724917,18.8545883 C74.9669792,20.0572198 75.8756172,24.6364707 75.1671876,30.5262815 C74.9977805,31.9756067 74.7205689,33.5020237 74.3817548,35.0592773 C71.3632287,34.3191964 68.0674911,33.7487173 64.6023463,33.3786768 C62.5232595,30.5262815 60.3671695,27.9359982 58.1956788,25.6695003 C63.2162884,20.9977393 67.9288853,18.4382927 71.1322191,18.4382927 L71.1322191,15 C71.1322191,15 71.1322191,15 71.1322191,15 C66.8970422,15 61.3528106,18.0219972 55.7469765,23.2642372 C50.1411424,18.0528339 44.5969108,15.0616734 40.3617339,15.0616734 L40.3617339,18.4999661 C43.5496671,18.4999661 48.2776645,21.0439944 53.2982742,25.6849187 C51.1421842,27.9514166 48.9860941,30.5262815 46.9378086,33.3786768 C43.4572632,33.7487173 40.1615256,34.3191964 37.1429995,35.0746957 C36.7887847,33.5328604 36.5269738,32.0372801 36.3421661,30.6033733 C35.6183358,24.7135624 36.5115731,20.1343116 38.59066,18.9162617 C39.0526793,18.6387313 39.6533043,18.5153845 40.3617339,18.5153845 L40.3617339,15.0770918 C40.3617339,15.0770918 40.3617339,15.0770918 40.3617339,15.0770918 C39.0680799,15.0770918 37.897631,15.3546221 36.8811886,15.9405195 C32.5536078,18.4382927 31.5833673,26.224561 33.8164606,35.9997969 C24.2372605,38.9601206 18,43.693555 18,48.6891014 C18,53.7000662 24.2680618,58.4489189 33.8780631,61.3938243 C31.6603705,71.1998969 32.6460117,79.0015835 36.9889931,81.4993567 C37.9900349,82.0852541 39.1604838,82.3627845 40.4541378,82.3627845 C44.6893147,82.3627845 50.2335462,79.3407873 55.8393804,74.0985472 C61.4452145,79.3099506 66.989446,82.3011111 71.2246229,82.3011111 C72.5182769,82.3011111 73.6887258,82.0235807 74.7051683,81.4376833 C79.032749,78.9399101 80.0029895,71.1536418 77.7698963,61.378406 C87.3182951,58.4335005 93.5555556,53.6846478 93.5555556,48.6891014 Z M73.5039181,38.4050599 C72.9340943,40.3940275 72.2256647,42.4446684 71.4248313,44.4953094 C70.7934049,43.2618411 70.1311772,42.0283729 69.407347,40.7949047 C68.6989174,39.5614364 67.9442859,38.3588049 67.1896544,37.18701 C69.3765457,37.5107955 71.4864338,37.9116726 73.5039181,38.4050599 Z M66.4504235,54.8256059 C65.2491733,56.9070836 64.0171219,58.8806328 62.7388685,60.7154168 C60.4441727,60.9158554 58.1186755,61.0237839 55.7777778,61.0237839 C53.4522807,61.0237839 51.1267835,60.9158554 48.8474883,60.7308351 C47.569235,58.8960511 46.3217829,56.9379203 45.1205327,54.871861 C43.9500838,52.8520567 42.8874394,50.8014158 41.9171989,48.7353565 C42.8720388,46.6692972 43.9500838,44.6032379 45.105132,42.5834336 C46.3063822,40.5019559 47.5384337,38.5284068 48.816687,36.6936227 C51.1113829,36.4931842 53.43688,36.3852557 55.7777778,36.3852557 C58.1032749,36.3852557 60.428772,36.4931842 62.7080672,36.6782044 C63.9863206,38.5129884 65.2337727,40.4711192 66.4350229,42.5371785 C67.6054718,44.5569828 68.6681161,46.6076238 69.6383567,48.6736831 C68.6681161,50.7397424 67.6054718,52.8058017 66.4504235,54.8256059 Z M71.4248313,52.82122 C72.256466,54.8872793 72.9648956,56.9533386 73.55012,58.9577245 C71.5326358,59.4511118 69.407347,59.8674074 67.205055,60.1911928 C67.9596866,59.0039796 68.7143181,57.7859297 69.4227477,56.5370431 C70.1311772,55.3035749 70.7934049,54.0546883 71.4248313,52.82122 Z M55.8085791,69.2726027 C54.3763192,67.7924408 52.9440594,66.1426771 51.5272003,64.3387298 C52.9132581,64.4004032 54.3301173,64.4466582 55.7623771,64.4466582 C57.2100376,64.4466582 58.6422974,64.4158215 60.0437559,64.3387298 C58.6576981,66.1426771 57.2254382,67.7924408 55.8085791,69.2726027 Z M44.3505005,60.1911928 C42.1636092,59.8674074 40.0537211,59.4665302 38.0362368,58.9731429 C38.6060606,56.9841754 39.3144902,54.9335344 40.1153236,52.8828934 C40.74675,54.1163617 41.4089777,55.3498299 42.1328079,56.5832982 C42.8566381,57.8167664 43.595869,59.019398 44.3505005,60.1911928 Z M55.7315758,28.1056001 C57.1638357,29.585762 58.5960955,31.2355258 60.0129547,33.0394731 C58.6268968,32.9777997 57.2100376,32.9315446 55.7777778,32.9315446 C54.3301173,32.9315446 52.8978575,32.9623813 51.496399,33.0394731 C52.8824569,31.2355258 54.3147167,29.585762 55.7315758,28.1056001 Z M44.3350999,37.18701 C43.5804684,38.3742232 42.8258368,39.5922731 42.1174073,40.8411597 C41.4089777,42.074628 40.74675,43.3080962 40.1153236,44.5415644 C39.2836889,42.4755051 38.5752593,40.4094458 37.9900349,38.4050599 C40.0075191,37.927091 42.1328079,37.5107955 44.3350999,37.18701 Z M30.3975178,56.4907881 C24.9456901,54.1626167 21.4189428,51.1097828 21.4189428,48.6891014 C21.4189428,46.26842 24.9456901,43.2001677 30.3975178,40.8874148 C31.7219731,40.3169357 33.1696336,39.8081301 34.6634959,39.3301611 C35.5413326,42.3521583 36.6963808,45.4975023 38.1286407,48.7199381 C36.7117815,51.9269556 35.5721339,55.0568812 34.7096979,58.0634601 C33.1850342,57.5854911 31.7373737,57.0612671 30.3975178,56.4907881 Z M38.6830638,78.5236146 C36.5885763,77.320983 35.6799384,72.7417322 36.388368,66.8519213 C36.5577751,65.4025961 36.8349866,63.8761792 37.1738008,62.3189255 C40.1923269,63.0590065 43.4880645,63.6294855 46.9532092,63.999526 C49.0322961,66.8519213 51.1883861,69.4422046 53.3598768,71.7087025 C48.3392671,76.3804635 43.6266703,78.9399101 40.4233365,78.9399101 C39.7303076,78.9244917 39.1450831,78.7857266 38.6830638,78.5236146 Z M75.2133895,66.7748295 C75.9372197,72.6646404 75.0439824,77.2438913 72.9648956,78.4619411 C72.5028763,78.7394715 71.9022512,78.8628183 71.1938216,78.8628183 C68.0058885,78.8628183 63.277891,76.3187901 58.2572813,71.6778658 C60.4133714,69.4113679 62.5694614,66.836503 64.617747,63.9841076 C68.0982923,63.6140672 71.39403,63.0435881 74.4125561,62.2880888 C74.7667708,63.8453425 75.0439824,65.3409227 75.2133895,66.7748295 Z M81.1426371,56.4907881 C79.8181818,57.0612671 78.3705214,57.5700728 76.876659,58.0480417 C75.9988223,55.0260445 74.8437741,51.8807005 73.4115142,48.6582647 C74.8283734,45.4512473 75.968021,42.3213216 76.830457,39.3147428 C78.3551207,39.7927117 79.8027812,40.3169357 81.1580378,40.8874148 C86.6098655,43.2155861 90.1366128,46.26842 90.1366128,48.6891014 C90.1212121,51.1097828 86.5944648,54.1780351 81.1426371,56.4907881 Z" id="Shape" fill="#191D2B" fill-rule="nonzero"></path>
                <circle id="Oval" fill="#191D2B" fill-rule="nonzero" cx="55.8273092" cy="48.8273092" r="6.82730924"></circle>
            </g>
        </g>
    </g>
</svg>